<svg xmlns="http://www.w3.org/2000/svg" viewBox="0 0 427 427" width="427" height="427">
	<style>
		tspan { white-space:pre }
		.shp0 { fill: #000000 } 
	</style>
	<g id="Layer">
		<g id="Layer">
			<path id="Layer" class="shp0" d="M125.21 423.54L299 249.75L366.13 316.88C368.98 319.73 373.21 320.73 377.04 319.45C380.88 318.18 383.66 314.84 384.23 310.84L426.9 12.18C427.36 8.78 426.24 5.5 423.88 3.13C421.5 0.75 418.15 -0.36 414.82 0.11L116.16 42.77C112.16 43.34 108.82 46.13 107.55 49.96C106.26 53.8 107.27 58.03 110.13 60.88L177.25 128L3.46 301.79C1.38 303.88 0.33 306.61 0.33 309.34C0.33 312.06 1.38 314.79 3.46 316.88L110.13 423.54C114.29 427.71 121.04 427.71 125.21 423.54Z" />
		</g>
	</g>
	<g id="Layer">
	</g>
	<g id="Layer">
	</g>
	<g id="Layer">
	</g>
	<g id="Layer">
	</g>
	<g id="Layer">
	</g>
	<g id="Layer">
	</g>
	<g id="Layer">
	</g>
	<g id="Layer">
	</g>
	<g id="Layer">
	</g>
	<g id="Layer">
	</g>
	<g id="Layer">
	</g>
	<g id="Layer">
	</g>
	<g id="Layer">
	</g>
	<g id="Layer">
	</g>
	<g id="Layer">
	</g>
</svg>