<?xml version="1.0" encoding="iso-8859-1"?>
<!-- Generator: Adobe Illustrator 19.0.0, SVG Export Plug-In . SVG Version: 6.00 Build 0)  -->
<svg version="1.1" id="Capa_1" xmlns="http://www.w3.org/2000/svg" xmlns:xlink="http://www.w3.org/1999/xlink" x="0px" y="0px"
	 viewBox="0 0 426.668 426.668" style="enable-background:new 0 0 426.668 426.668;" xml:space="preserve">
<g>
	<g>
		<path d="M423.543,301.791L249.751,127.999l67.125-67.125c2.854-2.854,3.854-7.083,2.573-10.917
			c-1.271-3.833-4.604-6.615-8.604-7.188L12.178,0.103C8.782-0.355,5.501,0.759,3.126,3.124c-2.375,2.375-3.49,5.729-3.021,9.052
			l42.667,298.667c0.573,4,3.354,7.333,7.188,8.604c3.844,1.292,8.073,0.281,10.917-2.573l67.125-67.125l173.792,173.792
			c2.083,2.083,4.813,3.125,7.542,3.125c2.729,0,5.458-1.042,7.542-3.125l106.667-106.667
			C427.709,312.707,427.709,305.957,423.543,301.791z"/>
	</g>
</g>
<g>
</g>
<g>
</g>
<g>
</g>
<g>
</g>
<g>
</g>
<g>
</g>
<g>
</g>
<g>
</g>
<g>
</g>
<g>
</g>
<g>
</g>
<g>
</g>
<g>
</g>
<g>
</g>
<g>
</g>
</svg>
