<?xml version="1.0"?>
<svg xmlns="http://www.w3.org/2000/svg" xmlns:xlink="http://www.w3.org/1999/xlink" xmlns:svgjs="http://svgjs.com/svgjs" version="1.1" width="512" height="512" x="0" y="0" viewBox="0 0 512 512" style="enable-background:new 0 0 512 512" xml:space="preserve" class=""><g><g xmlns="http://www.w3.org/2000/svg"><g><circle cx="256" cy="256" fill="#7fe2df" r="248.5" data-original="#4b5562" style="" class=""/></g><g><path d="m256 7.5c-137.243 0-248.5 111.257-248.5 248.5s111.257 248.5 248.5 248.5c-11.046 0-20-8.954-20-20s8.954-20 20-20v-417c-11.046 0-20-8.954-20-20s8.954-20 20-20z" fill="#7fe2df" data-original="#393f50" style="" class=""/></g><g><circle cx="256" cy="256" fill="#7fe2df" r="208.5" data-original="#b3e4ff" style="" class=""/></g><g><path d="m256 80c-97.047 0-176 78.953-176 176s78.953 176 176 176 176-78.953 176-176-78.953-176-176-176zm44.194 209.588c-2.93-2.929-7.678-2.929-10.607 0s-2.929 7.678 0 10.606l18.11 18.11c-14.037 11.668-32.06 18.696-51.697 18.696s-37.66-7.028-51.697-18.696l18.11-18.11c2.929-2.929 2.929-7.678 0-10.606s-7.677-2.93-10.607 0l-18.11 18.109c-11.667-14.037-18.696-32.06-18.696-51.697s7.029-37.66 18.696-51.697l18.11 18.109c1.465 1.464 3.385 2.197 5.304 2.197s3.839-.732 5.304-2.197c2.929-2.929 2.929-7.678 0-10.606l-18.11-18.11c14.036-11.668 32.059-18.696 51.696-18.696s37.66 7.028 51.697 18.696l-18.11 18.11c-2.929 2.929-2.929 7.678 0 10.606 1.465 1.465 3.384 2.197 5.304 2.197 1.919 0 3.839-.732 5.304-2.197l18.11-18.109c11.666 14.037 18.695 32.06 18.695 51.697s-7.029 37.66-18.696 51.697zm18.143-106.533c-15.003-12.84-33.996-21.146-54.837-22.764v-25.052c27.726 1.704 52.953 12.785 72.547 30.106zm-69.837-22.763c-20.841 1.618-39.834 9.924-54.837 22.764l-17.71-17.71c19.594-17.322 44.822-28.402 72.547-30.106zm-65.444 33.37c-12.84 15.003-21.146 33.996-22.764 54.838h-25.052c1.704-27.726 12.785-52.954 30.106-72.548zm-22.764 69.838c1.618 20.842 9.924 39.835 22.764 54.838l-17.71 17.71c-17.322-19.594-28.402-44.822-30.106-72.548zm33.371 65.445c15.003 12.84 33.996 21.146 54.837 22.764v25.052c-27.726-1.704-52.953-12.785-72.547-30.106zm69.837 22.763c20.841-1.618 39.834-9.924 54.837-22.764l17.71 17.71c-19.594 17.322-44.822 28.402-72.547 30.106zm65.444-33.37c12.84-15.003 21.146-33.996 22.764-54.838h25.052c-1.704 27.726-12.785 52.954-30.106 72.548zm22.764-69.838c-1.618-20.842-9.924-39.835-22.764-54.838l17.71-17.71c17.322 19.594 28.402 44.822 30.106 72.548zm-5.041-93.774c-22.338-20.019-51.308-32.776-83.167-34.516v-25.03c38.747 1.786 73.964 17.327 100.863 41.849zm-98.167-34.516c-31.859 1.74-60.829 14.497-83.167 34.516l-17.696-17.696c26.899-24.522 62.116-40.064 100.863-41.849zm-93.774 45.123c-20.019 22.338-32.776 51.308-34.516 83.167h-25.03c1.786-38.748 17.327-73.964 41.85-100.863zm-34.516 98.167c1.74 31.859 14.497 60.829 34.516 83.167l-17.696 17.696c-24.522-26.899-40.064-62.115-41.85-100.863zm45.123 93.774c22.338 20.019 51.308 32.776 83.167 34.516v25.029c-38.747-1.786-73.964-17.327-100.863-41.849zm98.167 34.516c31.859-1.74 60.829-14.497 83.167-34.516l17.696 17.696c-26.899 24.522-62.116 40.064-100.863 41.849zm93.774-45.123c20.019-22.338 32.776-51.308 34.516-83.167h25.029c-1.786 38.748-17.327 73.964-41.85 100.863zm34.516-98.167c-1.74-31.859-14.497-60.829-34.516-83.167l17.696-17.696c24.522 26.899 40.064 62.115 41.85 100.863z" fill="#0f052c" data-original="#000000" style="" class=""/><path d="m437.02 74.98c-48.352-48.351-112.64-74.98-181.02-74.98s-132.668 26.629-181.02 74.98c-48.351 48.353-74.98 112.64-74.98 181.02 0 62.646 22.864 122.936 64.382 169.764 2.748 3.1 7.488 3.385 10.588.636 3.1-2.748 3.384-7.488.637-10.587-39.084-44.082-60.607-100.838-60.607-159.813 0-132.888 108.112-241 241-241s241 108.112 241 241-108.112 241-241 241c-58.85 0-115.515-21.443-159.558-60.379-3.104-2.743-7.843-2.452-10.587.652-2.743 3.103-2.452 7.843.651 10.586 46.788 41.362 106.981 64.141 169.494 64.141 68.38 0 132.668-26.629 181.02-74.98 48.351-48.353 74.98-112.64 74.98-181.02s-26.629-132.667-74.98-181.02z" fill="#0f052c" data-original="#000000" style="" class=""/><path d="m397.266 92.72c-39.245-33.997-89.414-52.72-141.266-52.72-119.103 0-216 96.897-216 216s96.897 216 216 216 216-96.897 216-216c0-51.861-18.729-102.037-52.737-141.285-2.713-3.131-7.451-3.468-10.579-.756-3.131 2.712-3.47 7.449-.757 10.58 31.645 36.52 49.073 83.208 49.073 131.461 0 110.832-90.168 201-201 201s-201-90.168-201-201 90.168-201 201-201c48.244 0 94.925 17.422 131.443 49.058 3.13 2.712 7.866 2.374 10.58-.758 2.712-3.131 2.373-7.867-.757-10.58z" fill="#0f052c" data-original="#000000" style="" class=""/></g></g></g></svg>
